<?xml version="1.0" standalone="no"?>
<!DOCTYPE svg PUBLIC "-//W3C//DTD SVG 20010904//EN"
 "http://www.w3.org/TR/2001/REC-SVG-20010904/DTD/svg10.dtd">
<svg version="1.0" xmlns="http://www.w3.org/2000/svg"
 width="180.000000pt" height="180.000000pt" viewBox="0 0 180.000000 180.000000"
 preserveAspectRatio="xMidYMid meet">

<g transform="translate(0.000000,180.000000) scale(0.100000,-0.100000)"
fill="#000000" stroke="none">
<path d="M247 1183 c367 -635 487 -840 498 -851 10 -11 32 21 115 165 56 98
172 298 257 446 l155 267 74 0 c42 0 74 -4 74 -10 0 -5 -28 -58 -63 -117 -108
-183 -290 -499 -406 -703 l-111 -195 67 -3 c47 -2 69 1 75 10 7 12 128 222
391 678 55 96 138 239 183 318 l83 142 -219 0 -218 0 -143 -247 c-78 -137
-178 -310 -222 -385 -43 -76 -83 -136 -88 -133 -4 3 -28 40 -52 83 -24 42
-103 179 -175 303 -72 124 -134 233 -138 243 -6 15 1 17 71 14 l77 -3 110
-189 111 -188 33 53 c19 30 33 59 33 64 0 6 -49 93 -108 195 l-107 185 -222 3
-221 2 86 -147z"/>
</g>
</svg>
